<svg width="55" height="63" viewBox="0 0 55 63" fill="none" xmlns="http://www.w3.org/2000/svg">
<path d="M4.69581 15.0396H50.0021L54.6979 62.564H0L4.69581 15.0396Z" fill="#31C28D"/>
<rect x="17.2613" y="2.71011" width="20.6238" height="42.5927" rx="10.3119" stroke="#2FC18C" stroke-width="4.03509"/>
<path d="M31.2358 37.6568L31.2358 47.172C31.2358 48.6052 30.0739 49.7671 28.6407 49.7671C27.2075 49.7671 26.0457 48.6052 26.0457 47.172L26.0457 37.6568" stroke="white" stroke-width="2.69006" stroke-linecap="round" stroke-linejoin="round"/>
<path d="M10.4753 38.5218L10.4753 32.8992C10.4753 27.4052 14.929 22.9515 20.423 22.9515L21.288 22.9515C26.782 22.9515 31.2358 27.4052 31.2358 32.8992L31.2358 38.5219" stroke="white" stroke-width="2.69006" stroke-linecap="round" stroke-linejoin="round"/>
<path d="M26.0458 35.0618L26.0458 36.7004L26.0458 39.3869C26.0458 40.8201 24.8839 41.982 23.4507 41.982C22.0175 41.982 20.8557 40.8201 20.8557 39.3869L20.8557 36.6346L20.8557 35.0618" stroke="white" stroke-width="2.69006" stroke-linecap="round" stroke-linejoin="round"/>
<path d="M20.8554 35.0618L20.8554 36.7004L20.8554 39.3869C20.8554 40.8201 19.6936 41.982 18.2603 41.982C16.8271 41.982 15.6653 40.8201 15.6653 39.3869L15.6653 36.6346L15.6653 35.0618" stroke="white" stroke-width="2.69006" stroke-linecap="round" stroke-linejoin="round"/>
<path d="M15.6654 35.0618L15.6654 36.7004L15.6654 39.3869C15.6654 40.8201 14.5036 41.982 13.0703 41.982C11.6371 41.982 10.4753 40.8201 10.4753 39.3869L10.4753 36.6346L10.4753 35.0618" stroke="white" stroke-width="2.69006" stroke-linecap="round" stroke-linejoin="round"/>
<path d="M19.9905 47.172C19.9905 48.0812 20.1308 48.9577 20.3909 49.7809C20.6818 50.7017 21.1226 51.5559 21.6847 52.3148C23.2605 54.4427 25.7895 55.8222 28.6407 55.8222C31.492 55.8222 34.021 54.4427 35.5968 52.3148C36.1589 51.5559 36.5997 50.7017 36.8906 49.7809C37.1507 48.9577 37.291 48.0812 37.291 47.172" stroke="white" stroke-width="2.69006" stroke-linecap="round"/>
<circle cx="39.9026" cy="36.5601" r="4.48344" fill="white"/>
</svg>
